<?xml version="1.0" encoding="iso-8859-1"?>
<!-- Generator: Adobe Illustrator 19.0.0, SVG Export Plug-In . SVG Version: 6.00 Build 0)  -->
<svg version="1.1" id="Layer_1" xmlns="http://www.w3.org/2000/svg" xmlns:xlink="http://www.w3.org/1999/xlink" x="0px" y="0px"
	 viewBox="0 0 512.192 512.192" style="enable-background:new 0 0 512.192 512.192;" xml:space="preserve">
<g>
	<g>
		<g>
			<path d="M440.805,386.456l-60.907-47.467c-17.173-13.44-41.173-13.333-58.24,0.213l-13.547,10.667
				c-10.24,8.107-24.96,7.253-34.24-2.027l-108.907-109.12c-9.28-9.28-10.133-24.107-2.027-34.453l10.667-13.547
				c13.547-17.067,13.547-41.173,0.213-58.24l-47.36-61.013c-8.32-10.667-20.8-17.28-34.347-18.133
				c-13.44-0.747-26.667,4.267-36.267,13.76l-38.827,38.933c-21.653,21.653-52.907,90.987,122.773,266.987
				c114.453,114.773,184.32,138.88,222.72,138.88c23.147,0,36.587-8.533,43.733-15.787l38.933-38.933
				c18.453-18.453,18.347-48.427-0.107-66.88C443.685,388.909,442.298,387.629,440.805,386.456z M432.165,440.216
				c-0.747,0.853-1.387,1.6-2.133,2.347l-38.933,38.933c-4.267,4.373-12.8,9.493-28.693,9.493
				c-28.16,0-92.587-17.173-207.68-132.587c-132.48-132.8-148.907-210.56-122.667-236.8l38.933-39.04
				c4.8-4.8,11.307-7.573,18.24-7.573c0.533,0,1.067,0,1.6,0c7.36,0.427,14.187,4.053,18.773,9.92l47.36,61.013
				c7.36,9.387,7.253,22.613-0.107,32l-10.667,13.547c-14.827,18.773-13.227,45.653,3.627,62.72l108.907,109.227
				c16.96,16.96,43.84,18.56,62.613,3.627l13.547-10.667c9.28-7.36,22.507-7.467,31.893-0.107l60.907,47.467
				C438.992,412.589,441.018,428.909,432.165,440.216z"/>
			<path d="M509.072,3.416c-4.16-4.16-10.88-4.16-15.04,0L288.165,209.282v-91.2c0-5.333-3.84-10.133-9.067-10.88
				c-6.613-0.96-12.267,4.16-12.267,10.56v117.333c0,5.867,4.8,10.667,10.667,10.667h106.347c5.333,0,10.133-3.84,10.88-9.067
				c0.96-6.613-4.16-12.267-10.56-12.267h-80.96L509.072,18.562C513.232,14.402,513.232,7.576,509.072,3.416z"/>
		</g>
	</g>
</g>
<g>
</g>
<g>
</g>
<g>
</g>
<g>
</g>
<g>
</g>
<g>
</g>
<g>
</g>
<g>
</g>
<g>
</g>
<g>
</g>
<g>
</g>
<g>
</g>
<g>
</g>
<g>
</g>
<g>
</g>
</svg>
