<svg height="512pt" viewBox="0 0 512.00103 512" width="512pt" xmlns="http://www.w3.org/2000/svg"><path d="m372.933594 280.636719-55.769532 54c-16.066406-9.050781-46.839843-28.6875-80.304687-62.152344-33.46875-33.46875-53.328125-64.46875-62.523437-80.6875l53.980468-54.675781-136.304687-137.121094-67.152344 66.707031c-25.5 25.5-32.109375 64.300781-16.445313 96.546875 23.902344 49.210938 68 123.480469 142.359376 197.839844 74.359374 74.359375 148.628906 118.457031 197.839843 142.359375 11.660157 5.664063 24.171875 8.414063 36.609375 8.414063 21.953125 0 43.65625-8.582032 59.9375-24.859376l66.839844-67.074218zm43.945312 178.125c-13.460937 13.449219-33.875 16.960937-50.804687 8.738281-46.453125-22.5625-116.609375-64.238281-187.039063-134.667969-70.429687-70.433593-112.109375-140.589843-134.667968-187.039062-8.226563-16.9375-4.707032-37.359375 8.707031-50.773438l38.757812-38.503906 80.222657 80.703125-45.984376 46.578125 5.550782 12.464844c.902344 2.023437 22.710937 50.222656 76.976562 104.488281 54.300782 54.300781 102.09375 75.65625 104.101563 76.539062l12.292969 5.402344 47.46875-45.960937 83.089843 83.226562zm-110.414062-281.621094 136.890625-136.890625h-76.652344v-39.96875h144.882813v144.882812h-39.96875v-76.652343l-136.890626 136.890625zm0 0"/></svg>