<svg xmlns="http://www.w3.org/2000/svg" xmlns:xlink="http://www.w3.org/1999/xlink" version="1.1" x="0px" y="0px" viewBox="0 0 100 125" enable-background="new 0 0 100 100" xml:space="preserve"><path d="M19.432,21.672c0.207-1.624,4.201-4.585,8.537-6.318l3.784-1.178c1.996-0.412,4.271-0.104,4.618,0.939l5.718,17.188  c1.565,4.706-10.365,3.996-9.479,5.825c5.307,10.946,12.417,21.099,20.886,29.829c1.416,1.459,4.83-9.996,8.716-6.914l14.195,11.251  c0.864,0.683,0.372,2.927-0.695,4.661l-2.403,3.152c-3.106,3.479-7.26,6.223-8.854,5.858C40.167,80.49,16.275,46.369,19.432,21.672  L19.432,21.672z"/><path d="M69.454,13.5c-8.284,0-15,6.716-15,15s6.716,15,15,15s15-6.717,15-15C84.454,20.216,77.738,13.5,69.454,13.5z M69.454,41  c-6.902,0-12.5-5.597-12.5-12.5S62.552,16,69.454,16c6.901,0,12.5,5.597,12.5,12.5S76.355,41,69.454,41z"/><path d="M65.398,33.723c-0.401,0.38-1.034,0.364-1.414-0.037l0,0c-0.381-0.401-0.363-1.034,0.037-1.415l9.488-8.994  c0.399-0.38,1.033-0.364,1.413,0.037l0,0c0.38,0.402,0.364,1.034-0.038,1.414L65.398,33.723z"/><path d="M64.13,24.577c-0.389-0.391-0.389-1.024,0.002-1.414l0,0c0.394-0.391,1.024-0.389,1.415,0.002l9.229,9.259  c0.391,0.391,0.392,1.024,0,1.414l0,0c-0.394,0.391-1.024,0.39-1.416-0.002L64.13,24.577z"/><text x="0" y="115" fill="#000000" font-size="5px" font-weight="bold" font-family="'Helvetica Neue', Helvetica, Arial-Unicode, Arial, Sans-serif">Created by Tirumala Achary</text><text x="0" y="120" fill="#000000" font-size="5px" font-weight="bold" font-family="'Helvetica Neue', Helvetica, Arial-Unicode, Arial, Sans-serif">from the Noun Project</text></svg>